<?xml version="1.0" encoding="utf-8"?>
<!-- Generator: Adobe Illustrator 25.4.1, SVG Export Plug-In . SVG Version: 6.00 Build 0)  -->
<svg version="1.1" id="Capa_1" xmlns="http://www.w3.org/2000/svg" xmlns:xlink="http://www.w3.org/1999/xlink" x="0px" y="0px"
	 viewBox="0 0 20 20" style="enable-background:new 0 0 20 20;" xml:space="preserve">
<style type="text/css">
	.st0{fill:#9CA2A7;}
</style>
<g>
	<path class="st0" d="M4.95,8.18C4.78,8.16,4.53,8.14,4.18,8.13H4.15C4.1,8.12,4.06,8.11,4.04,8.09C4.02,8.07,4.01,8.03,4,7.98
		C3.99,7.86,4.01,7.7,4.05,7.52C4.12,7.13,4.21,6.83,4.31,6.6l0.04-0.08c0.06-0.11,0.1-0.17,0.14-0.19S4.59,6.34,4.7,6.4l2.7,1.33
		c0.09,0.04,0.16,0.1,0.2,0.18c0.04,0.1,0.03,0.19-0.02,0.27S7.44,8.31,7.34,8.31H7.16L4.95,8.18z M11.33,12.12
		c0.06,0.2,0.03,0.38-0.1,0.55l-0.19,0.23l-0.36,0.41c-0.64,0.7-1.12,1.22-1.45,1.56c-0.51,0.53-1.18,0.8-2.02,0.82
		c-0.88-0.02-1.6-0.39-2.16-1.1c-0.19-0.24-0.32-0.54-0.37-0.91c-0.1-0.57-0.07-1.08,0.08-1.52c0.12-0.38,0.32-0.73,0.6-1.03
		l1.8-1.97C7.3,9,7.44,8.92,7.6,8.9c0.16-0.02,0.31,0.01,0.45,0.1C8.21,9.1,8.3,9.24,8.34,9.43c0.04,0.19,0,0.35-0.11,0.5
		c-0.09,0.11-0.23,0.27-0.43,0.48l-1.3,1.43c-0.41,0.43-0.53,0.97-0.36,1.61c0.03,0.15,0.11,0.28,0.24,0.38
		c0.1,0.09,0.23,0.17,0.4,0.25c0.31,0.14,0.62,0.17,0.94,0.1c0.31-0.07,0.58-0.23,0.82-0.49l1.65-1.81c0.24-0.26,0.5-0.33,0.79-0.19
		C11.16,11.78,11.28,11.92,11.33,12.12z M5.13,5.07c-0.01-0.03,0-0.06,0.04-0.1C5.37,4.7,5.6,4.5,5.87,4.36
		c0.04-0.02,0.07-0.03,0.1-0.02C6,4.34,6.03,4.37,6.05,4.41l1.2,1.75c0.04,0.05,0.06,0.1,0.07,0.14c-0.01,0.07-0.04,0.12-0.1,0.15
		S7.11,6.48,7.04,6.44C6.97,6.41,6.86,6.33,6.71,6.22L5.96,5.69C5.62,5.45,5.37,5.28,5.2,5.16C5.16,5.13,5.14,5.1,5.13,5.07z
		 M7.61,4.19C7.6,4.13,7.59,4.08,7.61,4.05C7.62,4.03,7.66,4,7.73,3.99c0.18-0.05,0.42-0.07,0.72-0.07c0.27,0,0.47,0.02,0.61,0.05
		C9.12,3.98,9.16,4,9.17,4.02c0.02,0.02,0.02,0.06,0.01,0.12C9.06,4.84,8.9,5.72,8.71,6.8C8.7,6.8,8.69,6.82,8.69,6.83
		C8.65,6.98,8.57,7.06,8.44,7.07C8.31,7.07,8.23,7,8.19,6.84C8.11,6.51,8.05,6.26,8.02,6.09C7.91,5.58,7.77,4.94,7.61,4.19z
		 M8.54,10.28l2.26-2.42c0.17-0.2,0.38-0.3,0.63-0.31c0.22-0.01,0.4,0.07,0.56,0.23c0.16,0.16,0.23,0.35,0.23,0.56
		s-0.08,0.4-0.24,0.56l-0.11,0.12c-1.26,1.36-2.21,2.38-2.84,3.06c-0.14,0.14-0.29,0.23-0.46,0.27s-0.33,0.02-0.49-0.06
		s-0.27-0.2-0.36-0.37c-0.08-0.14-0.11-0.3-0.08-0.46s0.1-0.32,0.23-0.46C8.01,10.84,8.23,10.6,8.54,10.28z M16,7.18v0.35
		l-0.05,0.25c-0.03,0.18-0.06,0.3-0.08,0.38c-0.22,0.8-0.69,1.4-1.4,1.79l-2.34,1.27c-0.22,0.11-0.42,0.12-0.62,0.04
		c-0.2-0.09-0.32-0.25-0.38-0.48c-0.03-0.12-0.02-0.24,0.03-0.37s0.13-0.22,0.24-0.29s0.27-0.16,0.5-0.28l0.77-0.42l0.98-0.53
		c0.5-0.27,0.78-0.73,0.86-1.37c0.03-0.24-0.06-0.49-0.29-0.75c-0.23-0.26-0.51-0.42-0.83-0.49s-0.65-0.02-0.96,0.13
		c-0.29,0.15-0.72,0.38-1.29,0.7l-0.92,0.5C10,7.74,9.83,7.77,9.67,7.72C9.39,7.65,9.22,7.47,9.17,7.19
		C9.15,7.06,9.16,6.93,9.21,6.83c0.05-0.11,0.13-0.2,0.24-0.27C9.58,6.47,9.8,6.35,10.08,6.2l0.36-0.2l1.45-0.78
		c0.54-0.3,1.12-0.41,1.74-0.33c0.62,0.08,1.15,0.34,1.59,0.78c0.44,0.44,0.69,0.93,0.75,1.47C15.99,7.15,16,7.16,16,7.18z"/>
</g>
<g>
</g>
<g>
</g>
<g>
</g>
<g>
</g>
<g>
</g>
<g>
</g>
<g>
</g>
<g>
</g>
<g>
</g>
<g>
</g>
<g>
</g>
<g>
</g>
<g>
</g>
<g>
</g>
<g>
</g>
</svg>
